<?xml version="1.0" encoding="UTF-8"?>
<svg id="Layer_1" data-name="Layer 1" xmlns="http://www.w3.org/2000/svg" viewBox="0 0 211.68 211.68">
  <defs>
    <style>
      .cls-1 {
        fill: #fff;
      }

      .cls-2 {
        fill: #05aa3d;
        fill-rule: evenodd;
      }
    </style>
  </defs>
  <path class="cls-2" d="M105.84,0C47.39,0,0,47.39,0,105.84t0,0C0,164.29,47.39,211.68,105.84,211.68h0c58.45,0,105.84-47.39,105.84-105.84h0C211.68,47.39,164.29,0,105.84,0h0ZM105.84,32.76c5.16.12,9.55,1.88,13.18,5.27,3.34,3.58,5.07,7.94,5.19,13.1-.12,5.16-1.85,9.4-5.19,12.74-3.63,3.75-8.02,5.62-13.18,5.62s-9.4-1.88-12.74-5.62c-3.75-3.34-5.63-7.59-5.63-12.74s1.88-9.52,5.63-13.1c3.34-3.4,7.58-5.16,12.74-5.27ZM89.49,86.55h32.79v92.37h-32.79v-92.37Z"/>
  <path class="cls-1" d="M98.68,67.48c-1.19-.5-3.85-2.66-5.9-4.8-3.21-3.35-3.79-4.79-4.19-10.35-.38-5.27-.03-7.16,1.88-10.26,6.55-10.59,22.28-11.47,29.59-1.66,6.1,8.19,3.74,20.73-4.9,26-3.64,2.22-12.38,2.79-16.48,1.08Z"/>
  <path class="cls-1" d="M89.46,132.53v-45.56h32.54v91.12h-32.54v-45.56Z"/>
</svg>