<?xml version="1.0" encoding="UTF-8"?>
<svg id="Layer_1" data-name="Layer 1" xmlns="http://www.w3.org/2000/svg" viewBox="0 0 211.68 211.68">
  <defs>
    <style>
      .cls-1 {
        fill: #05aa3d;
      }

      .cls-2 {
        fill: #fff;
      }
    </style>
  </defs>
  <path class="cls-1" d="M105.84,0C47.39,0,0,47.39,0,105.84h0C0,164.29,47.39,211.68,105.84,211.68s105.84-47.39,105.84-105.84S164.29,0,105.84,0Z"/>
  <path class="cls-2" d="M53.34,56.3c11-14.96,29.06-24.3,53.15-24.3,28.8,0,51.85,10.47,51.85,32.72,0,34.77-48.97,33.28-45.82,70.67h-35.09v-6.17c0-32.16,45.82-43.75,45.82-63.19,0-5.8-6.28-11.03-14.66-11.03-12.31,0-21.21,6.73-25.66,14.4l-29.59-13.09ZM114.09,179.69h-38.75v-27.67h38.75v27.67Z"/>
</svg>