<?xml version="1.0" encoding="UTF-8"?>
<svg id="Layer_1" data-name="Layer 1" xmlns="http://www.w3.org/2000/svg" xmlns:xlink="http://www.w3.org/1999/xlink" viewBox="0 0 228.47 201.25">
  <defs>
    <style>
      .cls-1, .cls-2 {
        fill: #231f20;
      }

      .cls-2 {
        stroke: #000;
        stroke-miterlimit: 10;
      }

      .cls-3 {
        fill: url(#linear-gradient);
      }
    </style>
    <linearGradient id="linear-gradient" x1="45.57" y1="34.23" x2="140.43" y2="229.59" gradientUnits="userSpaceOnUse">
      <stop offset="0" stop-color="#fde319"/>
      <stop offset=".88" stop-color="#fcc018"/>
    </linearGradient>
  </defs>
  <path class="cls-3" d="M112,.09c9.3-.78,17.6,3.37,23.11,10.72l90.31,152.83c8.59,15.93-1.93,34.7-19.18,37.6H21.99c-15.56-2.71-25.73-18.35-20.69-33.68C32.07,114.5,63.24,61.5,94.93,9,99,4.37,105.81.62,112,.09Z"/>
  <path class="cls-2" d="M121.82,130.58c-2.04,5.92-13.62,6.05-15.1-.3-1.54-19.8-5.65-40.23-6.95-59.95-.16-2.49-.62-6.09-.3-8.46,2.16-16.06,30.47-18.07,29.6,5.74-.74,20.29-6.07,42.48-7.25,62.98Z"/>
  <path class="cls-1" d="M127.86,160.48c-3.7,14.65-23.87,14.43-27.18-.3.2-21.54,27.39-20.98,27.18.3Z"/>
</svg>